<mxfile host="app.diagrams.net" modified="2023-05-08T16:38:19.207Z" agent="Mozilla/5.0 (X11; Linux x86_64; rv:109.0) Gecko/20100101 Firefox/112.0" etag="ZbR1yIeY1Rdu-Ya7WkAb" version="21.2.9" type="github">
  <diagram name="Page-1" id="daLAT18TFRHwKtWzEJUv">
    <mxGraphModel dx="1907" dy="1043" grid="1" gridSize="10" guides="1" tooltips="1" connect="1" arrows="1" fold="1" page="1" pageScale="1" pageWidth="827" pageHeight="1169" math="0" shadow="0">
      <root>
        <mxCell id="0" />
        <mxCell id="1" parent="0" />
        <mxCell id="Taxe5sv8E48UQIlwHfvd-2" value="Homeworks" style="rounded=1;whiteSpace=wrap;html=1;" vertex="1" parent="1">
          <mxGeometry x="520" y="540" width="120" height="60" as="geometry" />
        </mxCell>
        <mxCell id="Taxe5sv8E48UQIlwHfvd-3" value="Schedule" style="rounded=1;whiteSpace=wrap;html=1;" vertex="1" parent="1">
          <mxGeometry x="520" y="470" width="120" height="60" as="geometry" />
        </mxCell>
        <mxCell id="Taxe5sv8E48UQIlwHfvd-4" value="Marks" style="rounded=1;whiteSpace=wrap;html=1;" vertex="1" parent="1">
          <mxGeometry x="520" y="400" width="120" height="60" as="geometry" />
        </mxCell>
        <mxCell id="Taxe5sv8E48UQIlwHfvd-5" value="School" style="rounded=1;whiteSpace=wrap;html=1;" vertex="1" parent="1">
          <mxGeometry x="520" y="330" width="120" height="60" as="geometry" />
        </mxCell>
        <mxCell id="Taxe5sv8E48UQIlwHfvd-62" style="edgeStyle=orthogonalEdgeStyle;rounded=0;orthogonalLoop=1;jettySize=auto;html=1;entryX=0.5;entryY=0;entryDx=0;entryDy=0;" edge="1" parent="1" source="Taxe5sv8E48UQIlwHfvd-6" target="Taxe5sv8E48UQIlwHfvd-60">
          <mxGeometry relative="1" as="geometry" />
        </mxCell>
        <mxCell id="Taxe5sv8E48UQIlwHfvd-98" value="Credentials" style="edgeLabel;html=1;align=center;verticalAlign=middle;resizable=0;points=[];" vertex="1" connectable="0" parent="Taxe5sv8E48UQIlwHfvd-62">
          <mxGeometry x="-0.2571" y="-1" relative="1" as="geometry">
            <mxPoint as="offset" />
          </mxGeometry>
        </mxCell>
        <mxCell id="Taxe5sv8E48UQIlwHfvd-121" style="edgeStyle=orthogonalEdgeStyle;rounded=0;orthogonalLoop=1;jettySize=auto;html=1;" edge="1" parent="1" source="Taxe5sv8E48UQIlwHfvd-6" target="Taxe5sv8E48UQIlwHfvd-2">
          <mxGeometry relative="1" as="geometry" />
        </mxCell>
        <mxCell id="Taxe5sv8E48UQIlwHfvd-122" style="edgeStyle=orthogonalEdgeStyle;rounded=0;orthogonalLoop=1;jettySize=auto;html=1;entryX=1;entryY=0.5;entryDx=0;entryDy=0;" edge="1" parent="1" source="Taxe5sv8E48UQIlwHfvd-6" target="Taxe5sv8E48UQIlwHfvd-3">
          <mxGeometry relative="1" as="geometry" />
        </mxCell>
        <mxCell id="Taxe5sv8E48UQIlwHfvd-123" style="edgeStyle=orthogonalEdgeStyle;rounded=0;orthogonalLoop=1;jettySize=auto;html=1;entryX=1;entryY=0.5;entryDx=0;entryDy=0;" edge="1" parent="1" source="Taxe5sv8E48UQIlwHfvd-6" target="Taxe5sv8E48UQIlwHfvd-4">
          <mxGeometry relative="1" as="geometry" />
        </mxCell>
        <mxCell id="Taxe5sv8E48UQIlwHfvd-124" style="edgeStyle=orthogonalEdgeStyle;rounded=0;orthogonalLoop=1;jettySize=auto;html=1;entryX=1;entryY=0.5;entryDx=0;entryDy=0;" edge="1" parent="1" source="Taxe5sv8E48UQIlwHfvd-6" target="Taxe5sv8E48UQIlwHfvd-5">
          <mxGeometry relative="1" as="geometry" />
        </mxCell>
        <mxCell id="Taxe5sv8E48UQIlwHfvd-126" value="token" style="edgeLabel;html=1;align=center;verticalAlign=middle;resizable=0;points=[];" vertex="1" connectable="0" parent="Taxe5sv8E48UQIlwHfvd-124">
          <mxGeometry x="-0.9171" y="-2" relative="1" as="geometry">
            <mxPoint x="-14" y="2" as="offset" />
          </mxGeometry>
        </mxCell>
        <mxCell id="Taxe5sv8E48UQIlwHfvd-6" value="User" style="rounded=1;whiteSpace=wrap;html=1;" vertex="1" parent="1">
          <mxGeometry x="790" y="570" width="120" height="60" as="geometry" />
        </mxCell>
        <mxCell id="Taxe5sv8E48UQIlwHfvd-90" style="edgeStyle=orthogonalEdgeStyle;rounded=0;orthogonalLoop=1;jettySize=auto;html=1;entryX=0.5;entryY=0;entryDx=0;entryDy=0;" edge="1" parent="1" source="Taxe5sv8E48UQIlwHfvd-18" target="Taxe5sv8E48UQIlwHfvd-89">
          <mxGeometry relative="1" as="geometry" />
        </mxCell>
        <mxCell id="Taxe5sv8E48UQIlwHfvd-18" value="provide_credentials" style="shape=hexagon;perimeter=hexagonPerimeter2;whiteSpace=wrap;html=1;fixedSize=1;" vertex="1" parent="1">
          <mxGeometry x="790" y="810" width="120" height="70" as="geometry" />
        </mxCell>
        <mxCell id="Taxe5sv8E48UQIlwHfvd-79" style="edgeStyle=orthogonalEdgeStyle;rounded=0;orthogonalLoop=1;jettySize=auto;html=1;entryX=0;entryY=0.5;entryDx=0;entryDy=0;" edge="1" parent="1" source="Taxe5sv8E48UQIlwHfvd-32" target="Taxe5sv8E48UQIlwHfvd-78">
          <mxGeometry relative="1" as="geometry">
            <Array as="points">
              <mxPoint x="1200" y="965" />
              <mxPoint x="1200" y="855" />
            </Array>
          </mxGeometry>
        </mxCell>
        <mxCell id="Taxe5sv8E48UQIlwHfvd-81" value="SMS" style="edgeLabel;html=1;align=center;verticalAlign=middle;resizable=0;points=[];" vertex="1" connectable="0" parent="Taxe5sv8E48UQIlwHfvd-79">
          <mxGeometry x="0.2191" relative="1" as="geometry">
            <mxPoint y="53" as="offset" />
          </mxGeometry>
        </mxCell>
        <mxCell id="Taxe5sv8E48UQIlwHfvd-80" style="edgeStyle=orthogonalEdgeStyle;rounded=0;orthogonalLoop=1;jettySize=auto;html=1;entryX=0;entryY=0.5;entryDx=0;entryDy=0;" edge="1" parent="1" source="Taxe5sv8E48UQIlwHfvd-32" target="Taxe5sv8E48UQIlwHfvd-77">
          <mxGeometry relative="1" as="geometry" />
        </mxCell>
        <mxCell id="Taxe5sv8E48UQIlwHfvd-82" value="Email" style="edgeLabel;html=1;align=center;verticalAlign=middle;resizable=0;points=[];" vertex="1" connectable="0" parent="Taxe5sv8E48UQIlwHfvd-80">
          <mxGeometry x="0.2695" y="-1" relative="1" as="geometry">
            <mxPoint as="offset" />
          </mxGeometry>
        </mxCell>
        <mxCell id="Taxe5sv8E48UQIlwHfvd-32" value="request_method" style="shape=hexagon;perimeter=hexagonPerimeter2;whiteSpace=wrap;html=1;fixedSize=1;" vertex="1" parent="1">
          <mxGeometry x="1050" y="930" width="120" height="70" as="geometry" />
        </mxCell>
        <mxCell id="Taxe5sv8E48UQIlwHfvd-49" value="MesApiError" style="rounded=1;whiteSpace=wrap;html=1;" vertex="1" parent="1">
          <mxGeometry x="1260" y="1100" width="120" height="60" as="geometry" />
        </mxCell>
        <mxCell id="Taxe5sv8E48UQIlwHfvd-70" style="edgeStyle=orthogonalEdgeStyle;rounded=0;orthogonalLoop=1;jettySize=auto;html=1;entryX=1;entryY=0.5;entryDx=0;entryDy=0;" edge="1" parent="1" source="Taxe5sv8E48UQIlwHfvd-53" target="Taxe5sv8E48UQIlwHfvd-6">
          <mxGeometry relative="1" as="geometry" />
        </mxCell>
        <mxCell id="Taxe5sv8E48UQIlwHfvd-71" value="token" style="edgeLabel;html=1;align=center;verticalAlign=middle;resizable=0;points=[];" vertex="1" connectable="0" parent="Taxe5sv8E48UQIlwHfvd-70">
          <mxGeometry x="0.1808" y="2" relative="1" as="geometry">
            <mxPoint x="29" y="-2" as="offset" />
          </mxGeometry>
        </mxCell>
        <mxCell id="Taxe5sv8E48UQIlwHfvd-53" value="save_token" style="shape=hexagon;perimeter=hexagonPerimeter2;whiteSpace=wrap;html=1;fixedSize=1;" vertex="1" parent="1">
          <mxGeometry x="1035" y="565" width="120" height="70" as="geometry" />
        </mxCell>
        <mxCell id="Taxe5sv8E48UQIlwHfvd-88" style="edgeStyle=orthogonalEdgeStyle;rounded=0;orthogonalLoop=1;jettySize=auto;html=1;" edge="1" parent="1" source="Taxe5sv8E48UQIlwHfvd-60" target="Taxe5sv8E48UQIlwHfvd-18">
          <mxGeometry relative="1" as="geometry" />
        </mxCell>
        <mxCell id="Taxe5sv8E48UQIlwHfvd-60" value="TokenGetter" style="rounded=1;whiteSpace=wrap;html=1;" vertex="1" parent="1">
          <mxGeometry x="790" y="700" width="120" height="60" as="geometry" />
        </mxCell>
        <mxCell id="Taxe5sv8E48UQIlwHfvd-115" style="edgeStyle=orthogonalEdgeStyle;rounded=0;orthogonalLoop=1;jettySize=auto;html=1;entryX=0.5;entryY=0;entryDx=0;entryDy=0;" edge="1" parent="1" source="Taxe5sv8E48UQIlwHfvd-67" target="Taxe5sv8E48UQIlwHfvd-53">
          <mxGeometry relative="1" as="geometry" />
        </mxCell>
        <mxCell id="Taxe5sv8E48UQIlwHfvd-116" value="async_session" style="edgeLabel;html=1;align=center;verticalAlign=middle;resizable=0;points=[];" vertex="1" connectable="0" parent="Taxe5sv8E48UQIlwHfvd-115">
          <mxGeometry x="0.69" y="1" relative="1" as="geometry">
            <mxPoint as="offset" />
          </mxGeometry>
        </mxCell>
        <mxCell id="Taxe5sv8E48UQIlwHfvd-67" value="db" style="rounded=1;whiteSpace=wrap;html=1;" vertex="1" parent="1">
          <mxGeometry x="1200" y="360" width="120" height="60" as="geometry" />
        </mxCell>
        <mxCell id="Taxe5sv8E48UQIlwHfvd-84" style="edgeStyle=orthogonalEdgeStyle;rounded=0;orthogonalLoop=1;jettySize=auto;html=1;" edge="1" parent="1" source="Taxe5sv8E48UQIlwHfvd-77" target="Taxe5sv8E48UQIlwHfvd-49">
          <mxGeometry relative="1" as="geometry" />
        </mxCell>
        <mxCell id="Taxe5sv8E48UQIlwHfvd-85" value="abort" style="edgeLabel;html=1;align=center;verticalAlign=middle;resizable=0;points=[];" vertex="1" connectable="0" parent="Taxe5sv8E48UQIlwHfvd-84">
          <mxGeometry x="-0.184" y="2" relative="1" as="geometry">
            <mxPoint as="offset" />
          </mxGeometry>
        </mxCell>
        <mxCell id="Taxe5sv8E48UQIlwHfvd-109" style="edgeStyle=orthogonalEdgeStyle;rounded=0;orthogonalLoop=1;jettySize=auto;html=1;entryX=1;entryY=0.5;entryDx=0;entryDy=0;" edge="1" parent="1" source="Taxe5sv8E48UQIlwHfvd-77" target="Taxe5sv8E48UQIlwHfvd-108">
          <mxGeometry relative="1" as="geometry">
            <Array as="points">
              <mxPoint x="1460" y="965" />
              <mxPoint x="1460" y="685" />
            </Array>
          </mxGeometry>
        </mxCell>
        <mxCell id="Taxe5sv8E48UQIlwHfvd-112" value="token" style="edgeLabel;html=1;align=center;verticalAlign=middle;resizable=0;points=[];" vertex="1" connectable="0" parent="Taxe5sv8E48UQIlwHfvd-109">
          <mxGeometry x="0.84" y="-2" relative="1" as="geometry">
            <mxPoint x="21" y="2" as="offset" />
          </mxGeometry>
        </mxCell>
        <mxCell id="Taxe5sv8E48UQIlwHfvd-77" value="request_otp" style="shape=hexagon;perimeter=hexagonPerimeter2;whiteSpace=wrap;html=1;fixedSize=1;" vertex="1" parent="1">
          <mxGeometry x="1260" y="930" width="120" height="70" as="geometry" />
        </mxCell>
        <mxCell id="Taxe5sv8E48UQIlwHfvd-83" style="edgeStyle=orthogonalEdgeStyle;rounded=0;orthogonalLoop=1;jettySize=auto;html=1;entryX=0.5;entryY=0;entryDx=0;entryDy=0;" edge="1" parent="1" source="Taxe5sv8E48UQIlwHfvd-78" target="Taxe5sv8E48UQIlwHfvd-77">
          <mxGeometry relative="1" as="geometry" />
        </mxCell>
        <mxCell id="Taxe5sv8E48UQIlwHfvd-78" value="select_sms" style="shape=hexagon;perimeter=hexagonPerimeter2;whiteSpace=wrap;html=1;fixedSize=1;" vertex="1" parent="1">
          <mxGeometry x="1260" y="820" width="120" height="70" as="geometry" />
        </mxCell>
        <mxCell id="Taxe5sv8E48UQIlwHfvd-103" style="edgeStyle=orthogonalEdgeStyle;rounded=0;orthogonalLoop=1;jettySize=auto;html=1;entryX=0;entryY=0.5;entryDx=0;entryDy=0;" edge="1" parent="1" source="Taxe5sv8E48UQIlwHfvd-89" target="Taxe5sv8E48UQIlwHfvd-32">
          <mxGeometry relative="1" as="geometry" />
        </mxCell>
        <mxCell id="Taxe5sv8E48UQIlwHfvd-106" value="2FA" style="edgeLabel;html=1;align=center;verticalAlign=middle;resizable=0;points=[];" vertex="1" connectable="0" parent="Taxe5sv8E48UQIlwHfvd-103">
          <mxGeometry x="-0.1657" y="-2" relative="1" as="geometry">
            <mxPoint as="offset" />
          </mxGeometry>
        </mxCell>
        <mxCell id="Taxe5sv8E48UQIlwHfvd-104" style="edgeStyle=orthogonalEdgeStyle;rounded=0;orthogonalLoop=1;jettySize=auto;html=1;entryX=0;entryY=0.5;entryDx=0;entryDy=0;" edge="1" parent="1" source="Taxe5sv8E48UQIlwHfvd-89" target="Taxe5sv8E48UQIlwHfvd-108">
          <mxGeometry relative="1" as="geometry">
            <Array as="points">
              <mxPoint x="940" y="965" />
              <mxPoint x="940" y="685" />
            </Array>
          </mxGeometry>
        </mxCell>
        <mxCell id="Taxe5sv8E48UQIlwHfvd-105" value="no 2FA" style="edgeLabel;html=1;align=center;verticalAlign=middle;resizable=0;points=[];" vertex="1" connectable="0" parent="Taxe5sv8E48UQIlwHfvd-104">
          <mxGeometry x="-0.6123" relative="1" as="geometry">
            <mxPoint as="offset" />
          </mxGeometry>
        </mxCell>
        <mxCell id="Taxe5sv8E48UQIlwHfvd-111" value="token" style="edgeLabel;html=1;align=center;verticalAlign=middle;resizable=0;points=[];" vertex="1" connectable="0" parent="Taxe5sv8E48UQIlwHfvd-104">
          <mxGeometry x="0.7297" y="1" relative="1" as="geometry">
            <mxPoint as="offset" />
          </mxGeometry>
        </mxCell>
        <mxCell id="Taxe5sv8E48UQIlwHfvd-89" value="check_2fa" style="shape=hexagon;perimeter=hexagonPerimeter2;whiteSpace=wrap;html=1;fixedSize=1;" vertex="1" parent="1">
          <mxGeometry x="790" y="930" width="120" height="70" as="geometry" />
        </mxCell>
        <mxCell id="Taxe5sv8E48UQIlwHfvd-100" style="edgeStyle=orthogonalEdgeStyle;rounded=0;orthogonalLoop=1;jettySize=auto;html=1;entryX=0;entryY=0.5;entryDx=0;entryDy=0;" edge="1" parent="1" source="Taxe5sv8E48UQIlwHfvd-99" target="Taxe5sv8E48UQIlwHfvd-60">
          <mxGeometry relative="1" as="geometry" />
        </mxCell>
        <mxCell id="Taxe5sv8E48UQIlwHfvd-101" value="driver" style="edgeLabel;html=1;align=center;verticalAlign=middle;resizable=0;points=[];" vertex="1" connectable="0" parent="Taxe5sv8E48UQIlwHfvd-100">
          <mxGeometry x="-0.248" y="3" relative="1" as="geometry">
            <mxPoint as="offset" />
          </mxGeometry>
        </mxCell>
        <mxCell id="Taxe5sv8E48UQIlwHfvd-99" value="WebDriver" style="rounded=1;whiteSpace=wrap;html=1;" vertex="1" parent="1">
          <mxGeometry x="520" y="700" width="120" height="60" as="geometry" />
        </mxCell>
        <mxCell id="Taxe5sv8E48UQIlwHfvd-113" style="edgeStyle=orthogonalEdgeStyle;rounded=0;orthogonalLoop=1;jettySize=auto;html=1;entryX=1;entryY=0.5;entryDx=0;entryDy=0;" edge="1" parent="1" source="Taxe5sv8E48UQIlwHfvd-108" target="Taxe5sv8E48UQIlwHfvd-53">
          <mxGeometry relative="1" as="geometry">
            <Array as="points">
              <mxPoint x="1270" y="600" />
            </Array>
          </mxGeometry>
        </mxCell>
        <mxCell id="Taxe5sv8E48UQIlwHfvd-114" value="token" style="edgeLabel;html=1;align=center;verticalAlign=middle;resizable=0;points=[];" vertex="1" connectable="0" parent="Taxe5sv8E48UQIlwHfvd-113">
          <mxGeometry x="0.4497" y="-2" relative="1" as="geometry">
            <mxPoint as="offset" />
          </mxGeometry>
        </mxCell>
        <mxCell id="Taxe5sv8E48UQIlwHfvd-108" value="get_token" style="shape=hexagon;perimeter=hexagonPerimeter2;whiteSpace=wrap;html=1;fixedSize=1;" vertex="1" parent="1">
          <mxGeometry x="1210" y="650" width="120" height="70" as="geometry" />
        </mxCell>
        <mxCell id="Taxe5sv8E48UQIlwHfvd-127" style="edgeStyle=orthogonalEdgeStyle;rounded=0;orthogonalLoop=1;jettySize=auto;html=1;entryX=0.5;entryY=0;entryDx=0;entryDy=0;" edge="1" parent="1" source="Taxe5sv8E48UQIlwHfvd-125" target="Taxe5sv8E48UQIlwHfvd-6">
          <mxGeometry relative="1" as="geometry" />
        </mxCell>
        <mxCell id="Taxe5sv8E48UQIlwHfvd-125" value="Client" style="rounded=1;whiteSpace=wrap;html=1;" vertex="1" parent="1">
          <mxGeometry x="790" y="120" width="120" height="60" as="geometry" />
        </mxCell>
      </root>
    </mxGraphModel>
  </diagram>
</mxfile>
